# xmcd
#
# Track frame offsets:
#	183
#	13508
#	26533
#	37308
#	47458
#	58070
#	67308
#	89658
#	105858
#	115408
#	127008
#	138708
#	177283
#
# Disc length: 2548 seconds
#
# Revision: 1
# Processed by: cddbd v1.4PL0 Copyright (c) Steve Scherf et al.
# Submitted via: audiograbber 1.81.02
#
DISCID=be09f20d
DTITLE=Creedence Clearwater Revival - Travellin´Band
DYEAR=1900
DGENRE=
TTITLE0=Proud Mary
TTITLE1=Green River
TTITLE2=Fortunate Son
TTITLE3=Bad Moon Rising
TTITLE4=Who´ll Stop the Rain
TTITLE5=Travelin´ Band
TTITLE6=Born on the Bayou
TTITLE7=Tomb Stone Shadow
TTITLE8=Don´t look now
TTITLE9=Commotion
TTITLE10=Down on the Corner
TTITLE11=Keep on chooglin´
TTITLE12=Night time is the right time
EXTD=
EXTT0=
EXTT1=
EXTT2=
EXTT3=
EXTT4=
EXTT5=
EXTT6=
EXTT7=
EXTT8=
EXTT9=
EXTT10=
EXTT11=
EXTT12=
PLAYORDER=
